# xmcd CD database file
#
# Track frame offsets:
#	150
#	19782
#	46068
#	67069
#	84069
#	109946
#	131042
#	151160
#	170821
#	192560
#
# Disc length: 2889 seconds
#
# Revision: 0
# Processed by: cddbd v1.5.2PL0 Copyright (c) Steve Scherf et al.
# Submitted via: CDex 1.50
#
DISCID=820b470a
DTITLE=Various Artist - Der Ultimative Hit-Mix 
DYEAR=2001
DGENRE=Country
TTITLE0=Nocklam Quintett - Mega Hit-Mix
TTITLE1=Ady Borg - Mega Hit Mix
TTITLE2=Ireen Sheer  - Mega Hit Mix
TTITLE3=Kastelruther Spatzen  - Mega Hit Mix
TTITLE4=Michael Morgan - Mega Hit Mix
TTITLE5=Wind  - Mega Hit Mix
TTITLE6=Brunner and Brunner  - Mega Hit Mix
TTITLE7=Die Paldauer  - Mega Hit Mix
TTITLE8=Leonard  - Mega Hit Mix
TTITLE9=Rosanna Rocci  - Mega Hit Mix
EXTD=YEAR: 2001
EXTT0=
EXTT1=
EXTT2=
EXTT3=
EXTT4=
EXTT5=
EXTT6=
EXTT7=
EXTT8=
EXTT9=
PLAYORDER=
